<svg width="243px" height="166px" viewBox="0 0 243 166" version="1.1" xmlns="http://www.w3.org/2000/svg" xmlns:xlink="http://www.w3.org/1999/xlink">
    <title>编组 131</title>
    <defs>
        <linearGradient x1="12.3943315%" y1="51.8848641%" x2="81.9031513%" y2="46.425872%" id="linearGradient-1">
            <stop stop-color="#B0C9FF" offset="0%"></stop>
            <stop stop-color="#CFCDFF" offset="100%"></stop>
        </linearGradient>
        <filter x="-22.7%" y="-73.3%" width="145.5%" height="246.6%" filterUnits="objectBoundingBox" id="filter-2">
            <feGaussianBlur stdDeviation="14" in="SourceGraphic"></feGaussianBlur>
        </filter>
        <linearGradient x1="12.3905845%" y1="43.6271211%" x2="93.1387563%" y2="55.7565105%" id="linearGradient-3">
            <stop stop-color="#E3DDFD" offset="0%"></stop>
            <stop stop-color="#DCE6FD" offset="47.5929818%"></stop>
            <stop stop-color="#AECDFD" offset="100%"></stop>
        </linearGradient>
        <linearGradient x1="22.2444314%" y1="43.2043467%" x2="96.4572816%" y2="56.7956533%" id="linearGradient-4">
            <stop stop-color="#FFFFFF" offset="0%"></stop>
            <stop stop-color="#FFFFFF" stop-opacity="0.500125485" offset="100%"></stop>
        </linearGradient>
        <linearGradient x1="22.2444314%" y1="33.1190136%" x2="96.4572816%" y2="66.8809864%" id="linearGradient-5">
            <stop stop-color="#FFFFFF" stop-opacity="0.35" offset="0%"></stop>
            <stop stop-color="#FFFFFF" offset="100%"></stop>
        </linearGradient>
        <linearGradient x1="22.2444314%" y1="38.1526988%" x2="96.4572816%" y2="61.8473012%" id="linearGradient-6">
            <stop stop-color="#FFFFFF" stop-opacity="0.35" offset="0%"></stop>
            <stop stop-color="#FFFFFF" offset="100%"></stop>
        </linearGradient>
    </defs>
    <g id="页面补充" stroke="none" stroke-width="1" fill="none" fill-rule="evenodd">
        <g id="1.3提示词{}唤起卡片样式" transform="translate(-1355, -160)">
            <g id="编组-52备份" transform="translate(1318, 99)">
                <g id="编组-131" transform="translate(40, 61)">
                    <rect id="矩形" x="0" y="0" width="240" height="150" rx="8"></rect>
                    <g id="编组-12" transform="translate(33, 27)">
                        <path d="M14.7317945,38.019802 L110.940821,38.019802 C116.359564,38.019802 121.410082,40.7624508 124.360727,45.3073899 L149.249318,83.643794 C151.655184,87.3495987 150.601376,92.3040868 146.895571,94.709953 C145.598684,95.5519125 144.08559,96 142.539365,96 L46.3303384,96 C40.9115951,96 35.8610777,93.2573511 32.9104324,88.7124121 L8.0218415,50.376008 C5.61597534,46.6702033 6.66978374,41.7157152 10.3755884,39.309849 C11.6724758,38.4678895 13.1855692,38.019802 14.7317945,38.019802 Z" id="矩形" stroke-opacity="0.597766369" stroke="#FFFFFF" fill="url(#linearGradient-1)" opacity="0.400012062" filter="url(#filter-2)"></path>
                        <path d="M26.1377351,19.009901 L122.346762,19.009901 C127.765505,19.009901 132.816022,21.7525498 135.766668,26.2974889 L160.655258,64.633893 C163.061125,68.3396977 162.007316,73.2941858 158.301512,75.700052 C157.004624,76.5420115 155.491531,76.990099 153.945305,76.990099 L57.7362789,76.990099 C52.3175357,76.990099 47.2670183,74.2474502 44.316373,69.7025111 L19.4277821,31.366107 C17.0219159,27.6603023 18.0757243,22.7058142 21.781529,20.299948 C23.0784164,19.4579885 24.5915098,19.009901 26.1377351,19.009901 Z" id="矩形" stroke="url(#linearGradient-4)" fill="url(#linearGradient-3)"></path>
                        <path d="M30.4898531,0 L123.825759,0 C126.872092,-5.59602307e-16 129.748852,1.40228483 131.625446,3.8019802 C132.42587,4.82552194 132.244997,6.30413803 131.221455,7.10456168 C130.807657,7.42815792 130.297464,7.6039604 129.77216,7.6039604 L36.4362542,7.6039604 C33.3899212,7.6039604 30.5131615,6.20167556 28.6365669,3.8019802 C27.8361432,2.77843846 28.0170162,1.29982236 29.0405579,0.499398715 C29.4543566,0.175802476 29.9645495,-1.23577092e-15 30.4898531,-1.33226763e-15 Z" id="矩形" fill="#FFFFFF" opacity="0.396754674"></path>
                        <path d="M64.8910233,11.8059406 C68.4223608,11.8059406 71.7613937,13.4145265 73.9623513,16.1760715 L101.546504,50.7859505 C102.166099,51.5633575 102.411931,52.518308 102.308512,53.4338055 C102.205093,54.349303 101.752424,55.2253476 100.975017,55.8449427 C100.337523,56.3530262 99.5464613,56.629703 98.7312641,56.629703 L70.6581187,56.629703 C67.1267812,56.629703 63.7877483,55.021117 61.5867907,52.2595721 L34.0026382,17.6496931 C33.3830431,16.8722861 33.1372114,15.9173356 33.2406302,15.0018381 C33.3440491,14.0863406 33.7967185,13.210296 34.5741254,12.5907009 C35.2116186,12.0826173 36.0026807,11.8059406 36.8178779,11.8059406 Z" id="矩形备份-5" stroke="url(#linearGradient-5)" stroke-width="0.8" fill-opacity="0.45" fill="#FFFFFF"></path>
                        <path d="M131.425677,11.8059406 C134.957014,11.8059406 138.296047,13.4145265 140.497005,16.1760715 L168.081157,50.7859505 C168.700752,51.5633575 168.946584,52.518308 168.843165,53.4338055 C168.739746,54.349303 168.287077,55.2253476 167.50967,55.8449427 C166.872177,56.3530262 166.081115,56.629703 165.265918,56.629703 L121.984851,56.629703 C118.453514,56.629703 115.114481,55.021117 112.913523,52.2595721 L85.3293709,17.6496931 C84.7097757,16.8722861 84.463944,15.9173356 84.5673629,15.0018381 C84.6707817,14.0863406 85.1234511,13.210296 85.9008581,12.5907009 C86.5383513,12.0826173 87.3294134,11.8059406 88.1446106,11.8059406 Z" id="矩形备份-6" stroke="url(#linearGradient-6)" stroke-width="0.8" fill-opacity="0.65" fill="#FFFFFF"></path>
                    </g>
                </g>
            </g>
        </g>
    </g>
</svg>