<svg width="20px" height="16px" viewBox="0 0 20 16" version="1.1" xmlns="http://www.w3.org/2000/svg" xmlns:xlink="http://www.w3.org/1999/xlink">
    <title>形状结合</title>
    <g id="设计稿" stroke="none" stroke-width="1" fill="none" fill-rule="evenodd" fill-opacity="0.78">
        <g id="7.1探索型任务/选择指令并输入问题" transform="translate(-25, -556)" fill="#000A1A" fill-rule="nonzero">
            <g id="编组-167" transform="translate(0, 64)">
                <g id="编组-116备份" transform="translate(24, 488)">
                    <g id="总结" transform="translate(0, 1)">
                        <path d="M9.28125,3.4375 C9.92763684,3.4375 10.5235149,3.653754 11.0004813,4.01785922 C11.4764851,3.653754 12.0723632,3.4375 12.71875,3.4375 L17.7675781,3.4375 C19.3338232,3.4375 20.6035156,4.70719247 20.6035156,6.2734375 L20.6035156,14.5234375 C20.6035156,16.0896825 19.3338232,17.359375 17.7675781,17.359375 L13.6757389,17.359375 C13.4619522,17.359375 13.2544784,17.4318415 13.0871825,17.5649462 L12.2533371,18.2283742 C11.994789,18.4340815 11.6741477,18.5460752 11.34375,18.5460752 C11.2250951,18.5460752 11.109744,18.5319298 10.9992911,18.5052333 C10.890256,18.5319298 10.7749049,18.5460752 10.65625,18.5460752 C10.3258523,18.5460752 10.005211,18.4340815 9.74666289,18.2283742 L8.91281746,17.5649462 C8.7455216,17.4318415 8.53804781,17.359375 8.32426109,17.359375 L4.23242188,17.359375 C2.66617684,17.359375 1.39648438,16.0896825 1.39648438,14.5234375 L1.39648438,6.2734375 C1.39648438,4.70719247 2.66617684,3.4375 4.23242188,3.4375 L9.28125,3.4375 Z M9.29688247,5.32825164 L4.23242188,5.328125 C3.7103402,5.328125 3.28710938,5.75135582 3.28710938,6.2734375 L3.28710938,14.5234375 C3.28710938,15.0455192 3.7103402,15.46875 4.23242188,15.46875 L8.32426109,15.46875 C8.88042506,15.46875 9.42234759,15.6322285 9.88378032,15.9360461 L9.8828125,6.2734375 C9.8828125,6.04670691 9.90941971,5.82619076 9.95968207,5.61484113 C9.79104813,5.44150234 9.55670631,5.33246429 9.29688247,5.32825164 Z M17.7675781,5.328125 L12.7031175,5.32825164 C12.4432937,5.33246429 12.2089519,5.44150234 12.0405403,5.61491752 C12.0905803,5.82619076 12.1171875,6.04670691 12.1171875,6.2734375 L12.1162197,15.9360461 C12.5776524,15.6322285 13.1195749,15.46875 13.6757389,15.46875 L17.7675781,15.46875 C18.2896598,15.46875 18.7128906,15.0455192 18.7128906,14.5234375 L18.7128906,6.2734375 C18.7128906,5.75135582 18.2896598,5.328125 17.7675781,5.328125 Z" id="形状结合"></path>
                    </g>
                </g>
            </g>
        </g>
    </g>
</svg>