<svg width="26px" height="32px" viewBox="0 0 26 32" version="1.1" xmlns="http://www.w3.org/2000/svg" xmlns:xlink="http://www.w3.org/1999/xlink">
    <title>编组 3</title>
    <g id="Agent构建平台530迭代" stroke="none" stroke-width="1" fill="none" fill-rule="evenodd">
        <g id="团队空间-知识库-详情-选择" transform="translate(-949, -260)">
            <g id="编组-19" transform="translate(922, 40)">
                <g id="编组-7" transform="translate(0, 48)">
                    <g id="编组-32备份" transform="translate(8, 160)">
                        <g id="编组-29" transform="translate(12, 8)">
                            <g id="编组-3" transform="translate(7, 4)">
                                <path d="M4,0 L17.3153652,0 C18.3725936,-1.94209704e-16 19.3868259,0.418550251 20.1363589,1.1641589 L22.5587421,3.57385943 L22.5587421,3.57385943 L24.9413985,6.15924615 C25.6221006,6.89786649 26,7.86555008 26,8.86999792 L26,28 C26,30.209139 24.209139,32 22,32 L4,32 C1.790861,32 2.705415e-16,30.209139 0,28 L0,4 C-2.705415e-16,1.790861 1.790861,4.05812251e-16 4,0 Z" id="矩形" fill="#3272FF"></path>
                                <rect id="矩形" fill-opacity="0.59677871" fill="#FFFFFF" x="5" y="13" width="17" height="2" rx="1"></rect>
                                <rect id="矩形备份-6" fill-opacity="0.59677871" fill="#FFFFFF" x="5" y="19" width="11" height="2" rx="1"></rect>
                                <path d="M24.7417248,5.94619897 C23.9965945,5.10702338 23.3440202,4.39398504 22.784002,3.80708393 C22.2239837,3.22018282 21.3709379,2.35898984 20.2248645,1.223505 C19.7031197,0.791389409 19.330625,0.517783008 19.1073803,0.402685802 C18.4697291,0.0739350065 18,0.076414539 18,0.076414539 C18,1.71760969 18,3.35880485 18,5 C18,6.65685425 19.3431458,8 21,8 L25.8952711,8 L25.8952711,8 C25.7949595,7.55935149 25.65061,7.18296003 25.4622224,6.87082563 C25.2738348,6.55869123 25.033669,6.25048234 24.7417248,5.94619897 Z" id="路径-5" fill-opacity="0.599428404" fill="#FFFFFF"></path>
                            </g>
                        </g>
                    </g>
                </g>
            </g>
        </g>
    </g>
</svg>