<svg width="22px" height="22px" viewBox="0 0 22 22" version="1.1" xmlns="http://www.w3.org/2000/svg" xmlns:xlink="http://www.w3.org/1999/xlink">
    <title>组织架构</title>
    <g id="设计稿" stroke="none" stroke-width="1" fill="none" fill-rule="evenodd">
        <g id="7.1探索型任务/选择指令并输入问题" transform="translate(-24, -411)">
            <g id="编组-167" transform="translate(0, 64)">
                <g id="编组-115备份" transform="translate(0, 346)">
                    <g id="编组-113" transform="translate(24, 0)">
                        <g id="组织架构" transform="translate(0, 1)">
                            <rect id="大小区域" x="0" y="0" width="22" height="22"></rect>
                            <path d="M12.1601562,2.44921875 C13.3467055,2.44921875 14.3085938,3.41110698 14.3085938,4.59765625 L14.3085938,6.91796875 C14.3085938,8.10451802 13.3467055,9.06640625 12.1601562,9.06640625 L9.83984375,9.06640625 C8.65329448,9.06640625 7.69140625,8.10451802 7.69140625,6.91796875 L7.69140625,4.59765625 C7.69140625,3.41110698 8.65329448,2.44921875 9.83984375,2.44921875 L12.1601562,2.44921875 Z M12.1601562,4.33984375 L9.83984375,4.33984375 C9.69745784,4.33984375 9.58203125,4.45527034 9.58203125,4.59765625 L9.58203125,6.91796875 C9.58203125,7.06035466 9.69745784,7.17578125 9.83984375,7.17578125 L12.1601562,7.17578125 C12.3025422,7.17578125 12.4179688,7.06035466 12.4179688,6.91796875 L12.4179688,4.59765625 C12.4179688,4.45527034 12.3025422,4.33984375 12.1601562,4.33984375 Z" id="矩形" fill-opacity="0.78" fill="#000A1A" fill-rule="nonzero"></path>
                            <path d="M6.89648437,12.9765625 C8.08303364,12.9765625 9.04492188,13.9384507 9.04492188,15.125 L9.04492188,17.4453125 C9.04492188,18.6318618 8.08303364,19.59375 6.89648438,19.59375 L4.57617188,19.59375 C3.38962261,19.59375 2.42773438,18.6318618 2.42773438,17.4453125 L2.42773438,15.125 C2.42773438,13.9384507 3.38962261,12.9765625 4.57617188,12.9765625 L6.89648437,12.9765625 Z M6.89648438,14.8671875 L4.57617188,14.8671875 C4.43378596,14.8671875 4.31835938,14.9826141 4.31835938,15.125 L4.31835938,17.4453125 C4.31835938,17.5876984 4.43378596,17.703125 4.57617188,17.703125 L6.89648438,17.703125 C7.03887029,17.703125 7.15429688,17.5876984 7.15429688,17.4453125 L7.15429688,15.125 C7.15429688,14.9826141 7.03887029,14.8671875 6.89648438,14.8671875 Z" id="矩形备份" fill-opacity="0.78" fill="#000A1A" fill-rule="nonzero"></path>
                            <path d="M17.4238281,12.9765625 C18.6103774,12.9765625 19.5722656,13.9384507 19.5722656,15.125 L19.5722656,17.4453125 C19.5722656,18.6318618 18.6103774,19.59375 17.4238281,19.59375 L15.1035156,19.59375 C13.9169664,19.59375 12.9550781,18.6318618 12.9550781,17.4453125 L12.9550781,15.125 C12.9550781,13.9384507 13.9169664,12.9765625 15.1035156,12.9765625 L17.4238281,12.9765625 Z M17.4238281,14.8671875 L15.1035156,14.8671875 C14.9611297,14.8671875 14.8457031,14.9826141 14.8457031,15.125 L14.8457031,17.4453125 C14.8457031,17.5876984 14.9611297,17.703125 15.1035156,17.703125 L17.4238281,17.703125 C17.566214,17.703125 17.6816406,17.5876984 17.6816406,17.4453125 L17.6816406,15.125 C17.6816406,14.9826141 17.566214,14.8671875 17.4238281,14.8671875 Z" id="矩形备份-2" fill-opacity="0.78" fill="#000A1A" fill-rule="nonzero"></path>
                            <path d="M15.0605469,10.0546875 C16.2470961,10.0546875 17.2089844,11.0165757 17.2089844,12.203125 L17.2089844,13.921875 L15.3183594,13.921875 L15.3183594,12.203125 C15.3183594,12.0607391 15.2029328,11.9453125 15.0605469,11.9453125 L6.93945312,11.9453125 C6.79706721,11.9453125 6.68164062,12.0607391 6.68164062,12.203125 L6.68164062,13.921875 L4.79101562,13.921875 L4.79101562,12.203125 C4.79101562,11.0165757 5.75290386,10.0546875 6.93945312,10.0546875 L15.0605469,10.0546875 Z" id="路径-13" fill-opacity="0.78" fill="#000A1A" fill-rule="nonzero"></path>
                            <polygon id="路径-14" fill-opacity="0.78" fill="#000A1A" fill-rule="nonzero" points="11.9453125 8.12109375 11.9453125 11 10.0546875 11 10.0546875 8.12109375"></polygon>
                        </g>
                    </g>
                </g>
            </g>
        </g>
    </g>
</svg>