<svg width="16px" height="16px" viewBox="0 0 16 16" version="1.1" xmlns="http://www.w3.org/2000/svg" xmlns:xlink="http://www.w3.org/1999/xlink">
    <title>组织架构</title>
    <g id="设计稿" stroke="none" stroke-width="1" fill="none" fill-rule="evenodd">
        <g id="2.3.3探索型任务/技能/已关联" transform="translate(-793, -1341)">
            <g id="编组-44-+-编组-67-+-矩形-+-编组-127蒙版备份" transform="translate(746, 1298)">
                <g id="编组-123备份" transform="translate(24, 11)">
                    <g id="编组-122备份-3" transform="translate(0, 28)">
                        <g id="编组-15备份" transform="translate(17, 0)">
                            <g id="组织架构" transform="translate(6, 4)">
                                <rect id="大小区域" x="0" y="0" width="16" height="16"></rect>
                                <path d="M8.84375,1.78125 C9.70669492,1.78125 10.40625,2.48080508 10.40625,3.34375 L10.40625,5.03125 C10.40625,5.89419492 9.70669492,6.59375 8.84375,6.59375 L7.15625,6.59375 C6.29330508,6.59375 5.59375,5.89419492 5.59375,5.03125 L5.59375,3.34375 C5.59375,2.48080508 6.29330508,1.78125 7.15625,1.78125 L8.84375,1.78125 Z M8.84375,3.15625 L7.15625,3.15625 C7.05269661,3.15625 6.96875,3.24019661 6.96875,3.34375 L6.96875,5.03125 C6.96875,5.13480339 7.05269661,5.21875 7.15625,5.21875 L8.84375,5.21875 C8.94730339,5.21875 9.03125,5.13480339 9.03125,5.03125 L9.03125,3.34375 C9.03125,3.24019661 8.94730339,3.15625 8.84375,3.15625 Z" id="矩形" fill="#1B62FF" fill-rule="nonzero"></path>
                                <path d="M5.015625,9.4375 C5.87856992,9.4375 6.578125,10.1370551 6.578125,11 L6.578125,12.6875 C6.578125,13.5504449 5.87856992,14.25 5.015625,14.25 L3.328125,14.25 C2.46518008,14.25 1.765625,13.5504449 1.765625,12.6875 L1.765625,11 C1.765625,10.1370551 2.46518008,9.4375 3.328125,9.4375 L5.015625,9.4375 Z M5.015625,10.8125 L3.328125,10.8125 C3.22457161,10.8125 3.140625,10.8964466 3.140625,11 L3.140625,12.6875 C3.140625,12.7910534 3.22457161,12.875 3.328125,12.875 L5.015625,12.875 C5.11917839,12.875 5.203125,12.7910534 5.203125,12.6875 L5.203125,11 C5.203125,10.8964466 5.11917839,10.8125 5.015625,10.8125 Z" id="矩形备份" fill="#1B62FF" fill-rule="nonzero"></path>
                                <path d="M12.671875,9.4375 C13.5348199,9.4375 14.234375,10.1370551 14.234375,11 L14.234375,12.6875 C14.234375,13.5504449 13.5348199,14.25 12.671875,14.25 L10.984375,14.25 C10.1214301,14.25 9.421875,13.5504449 9.421875,12.6875 L9.421875,11 C9.421875,10.1370551 10.1214301,9.4375 10.984375,9.4375 L12.671875,9.4375 Z M12.671875,10.8125 L10.984375,10.8125 C10.8808216,10.8125 10.796875,10.8964466 10.796875,11 L10.796875,12.6875 C10.796875,12.7910534 10.8808216,12.875 10.984375,12.875 L12.671875,12.875 C12.7754284,12.875 12.859375,12.7910534 12.859375,12.6875 L12.859375,11 C12.859375,10.8964466 12.7754284,10.8125 12.671875,10.8125 Z" id="矩形备份-2" fill="#1B62FF" fill-rule="nonzero"></path>
                                <path d="M10.953125,7.3125 C11.8160699,7.3125 12.515625,8.01205508 12.515625,8.875 L12.515625,10.125 L11.140625,10.125 L11.140625,8.875 C11.140625,8.77144661 11.0566784,8.6875 10.953125,8.6875 L5.046875,8.6875 C4.94332161,8.6875 4.859375,8.77144661 4.859375,8.875 L4.859375,10.125 L3.484375,10.125 L3.484375,8.875 C3.484375,8.01205508 4.18393008,7.3125 5.046875,7.3125 L10.953125,7.3125 Z" id="路径-13" fill="#1B62FF" fill-rule="nonzero"></path>
                                <polygon id="路径-14" fill="#1B62FF" fill-rule="nonzero" points="8.6875 5.90625 8.6875 8 7.3125 8 7.3125 5.90625"></polygon>
                            </g>
                        </g>
                    </g>
                </g>
            </g>
        </g>
    </g>
</svg>