<?xml version="1.0" encoding="UTF-8"?>
<svg width="18px" height="18px" viewBox="0 0 18 18" version="1.1" xmlns="http://www.w3.org/2000/svg" xmlns:xlink="http://www.w3.org/1999/xlink">
    <title>B1F98B67-8B10-4391-8B55-FC22474A6826</title>
    <defs>
        <linearGradient x1="50%" y1="0.175508086%" x2="50%" y2="100%" id="linearGradient-1">
            <stop stop-color="#FDB813" offset="0%"></stop>
            <stop stop-color="#FD9B13" offset="100%"></stop>
        </linearGradient>
    </defs>
    <g id="组件交互说明" stroke="none" stroke-width="1" fill="none" fill-rule="evenodd">
        <g id="数据展示-消息-思维链" transform="translate(-105, -458)">
            <g id="编组-3" transform="translate(56, 391)">
                <g id="编组-5" transform="translate(0, 56)">
                    <g id="编组-8" transform="translate(40, 0)">
                        <g id="编组-11" transform="translate(8, 10)">
                            <g id="思考" transform="translate(1, 1)">
                                <rect id="矩形" fill="#000000" fill-rule="nonzero" opacity="0" x="0" y="0" width="18" height="18"></rect>
                                <g id="编组-6" transform="translate(2.5, 0.5)">
                                    <rect id="矩形" fill="#2D4375" x="3" y="15" width="7" height="2" rx="1"></rect>
                                    <g id="编组-25">
                                        <circle id="椭圆形" fill="#FFFFFF" cx="6.5" cy="7" r="5"></circle>
                                        <path d="M6.5,0 C10.0898509,0 13,2.92507297 13,6.53333333 C13,8.75319786 11.8985306,10.7144811 10.2149628,11.8951486 L10.2142857,13 C10.2142857,13.5522847 9.76657046,14 9.21428571,14 L3.78571429,14 C3.23342954,14 2.78571429,13.5522847 2.78571429,13 L2.7850372,11.8951486 C1.10146944,10.7144811 0,8.75319786 0,6.53333333 C0,2.92507297 2.91014913,0 6.5,0 Z M8.38670089,3.21796705 C8.12557336,2.92734432 7.70220198,2.92734432 7.44107444,3.21796705 C7.35306197,3.31592081 7.27937711,3.39792862 7.20602545,3.47956558 L7.11079817,3.58554909 C7.04596692,3.65770324 6.97697406,3.73448906 6.89500679,3.8257148 L6.80838832,3.92211711 C6.73205825,4.0070689 6.64467818,4.10431883 6.5411481,4.21954297 L6.17700779,4.62481409 C6.00789165,4.81303245 5.80817549,5.0353072 5.56904649,5.30144659 L5.31645348,5.58257079 C5.227659,5.68139488 5.13415893,5.7854561 5.03562684,5.89511769 L4.72460819,6.24126691 C4.56122445,6.42310537 4.3857843,6.61836204 4.19718615,6.82826297 L4.13934537,6.9009387 C3.80653134,7.37522944 4.10407351,8.09866801 4.66999937,8.09866801 L6.7152597,8.09860465 L5.25031055,9.72959495 C4.98918301,10.0202177 4.98918301,10.4914102 5.25031055,10.782033 C5.51143808,11.0726557 5.93480946,11.0726557 6.195937,10.782033 L8.80281385,7.88070097 L8.86065463,7.80802523 C9.19346866,7.33373449 8.89592649,6.61029592 8.33000063,6.61029592 L6.28313891,6.61023256 L6.39178323,6.49065508 C6.72846511,6.11594389 6.99246853,5.82212044 7.20468311,5.58593554 L7.35446003,5.41924083 C7.37791325,5.3931385 7.40063887,5.36784594 7.42267769,5.34331777 L7.54699539,5.20495798 C7.64426948,5.09669648 7.72641354,5.00527398 7.7985276,4.9250144 L7.88057647,4.83369785 C8.07529463,4.61698564 8.19810274,4.48030597 8.38670089,4.27040505 C8.64782843,3.97978232 8.64782843,3.50858978 8.38670089,3.21796705 Z" id="形状结合" fill="url(#linearGradient-1)"></path>
                                    </g>
                                </g>
                            </g>
                        </g>
                    </g>
                </g>
            </g>
        </g>
    </g>
</svg>