<svg width="18px" height="18px" viewBox="0 0 18 18" version="1.1" xmlns="http://www.w3.org/2000/svg" xmlns:xlink="http://www.w3.org/1999/xlink">
    <title>indent</title>
    <g id="设计稿" stroke="none" stroke-width="1" fill="none" fill-rule="evenodd" fill-opacity="0.680000007">
        <g id="6.3探索型任务/配置内容展示(全部)" transform="translate(-438, -91)" fill="#000A1A" fill-rule="nonzero">
            <g id="编组-203" transform="translate(0, 64)">
                <g id="indent" transform="translate(438, 27)">
                    <rect id="矩形" opacity="0" x="0" y="0" width="18" height="18"></rect>
                    <path d="M7.171875,7.76953125 L15.609375,7.76953125 C15.6867188,7.76953125 15.75,7.70625 15.75,7.62890625 L15.75,6.64453125 C15.75,6.5671875 15.6867188,6.50390625 15.609375,6.50390625 L7.171875,6.50390625 C7.09453125,6.50390625 7.03125,6.5671875 7.03125,6.64453125 L7.03125,7.62890625 C7.03125,7.70625 7.09453125,7.76953125 7.171875,7.76953125 Z M7.03125,11.3554688 C7.03125,11.4328125 7.09453125,11.4960938 7.171875,11.4960938 L15.609375,11.4960938 C15.6867188,11.4960938 15.75,11.4328125 15.75,11.3554688 L15.75,10.3710938 C15.75,10.29375 15.6867188,10.2304688 15.609375,10.2304688 L7.171875,10.2304688 C7.09453125,10.2304688 7.03125,10.29375 7.03125,10.3710938 L7.03125,11.3554688 Z M15.890625,2.8125 L2.109375,2.8125 C2.03203125,2.8125 1.96875,2.87578125 1.96875,2.953125 L1.96875,3.9375 C1.96875,4.01484375 2.03203125,4.078125 2.109375,4.078125 L15.890625,4.078125 C15.9679688,4.078125 16.03125,4.01484375 16.03125,3.9375 L16.03125,2.953125 C16.03125,2.87578125 15.9679688,2.8125 15.890625,2.8125 Z M15.890625,13.921875 L2.109375,13.921875 C2.03203125,13.921875 1.96875,13.9851563 1.96875,14.0625 L1.96875,15.046875 C1.96875,15.1242187 2.03203125,15.1875 2.109375,15.1875 L15.890625,15.1875 C15.9679688,15.1875 16.03125,15.1242187 16.03125,15.046875 L16.03125,14.0625 C16.03125,13.9851563 15.9679688,13.921875 15.890625,13.921875 Z M1.49286406,7.72299101 L3.65673124,10.4704519 C3.71825468,10.5495535 3.83778593,10.5495535 3.90106718,10.4704519 L6.06669218,7.72299101 C6.14755156,7.62103788 6.07548124,7.46986601 5.94540312,7.46986601 L1.61591093,7.46986601 C1.48583281,7.46986601 1.41200468,7.61928007 1.49286406,7.72299101 L1.49286406,7.72299101 Z" id="形状"></path>
                </g>
            </g>
        </g>
    </g>
</svg>