<svg width="24px" height="24px" viewBox="0 0 24 24" version="1.1" xmlns="http://www.w3.org/2000/svg" xmlns:xlink="http://www.w3.org/1999/xlink">
    <title>编组 22</title>
    <g id="页面补充" stroke="none" stroke-width="1" fill="none" fill-rule="evenodd">
        <g id="1.3提示词{}唤起卡片样式" transform="translate(-1338, -540)">
            <g id="编组-56" transform="translate(1318, 483)">
                <g id="编组-46备份-2" transform="translate(8, 49)">
                    <g id="编组-22" transform="translate(12, 8)">
                        <rect id="矩形" fill="#6ABE39" x="0" y="0" width="24" height="24" rx="6"></rect>
                        <g id="代码" transform="translate(3, 3)">
                            <rect id="大小区域" x="0" y="0" width="18" height="18"></rect>
                            <path d="M10.6497921,3.47718158 C10.8263539,3.08822186 11.2847997,2.91603933 11.6737594,3.09260113 C12.0627191,3.26916293 12.2349017,3.72760871 12.0583399,4.11656842 L7.34880512,14.4915152 C7.17224332,14.8804749 6.71379754,15.0526575 6.32483783,14.8760957 C5.93587811,14.6995339 5.76369558,14.2410881 5.94025738,13.8521284 L10.6497921,3.47718158 Z" id="路径-11" stroke="#FFFFFF" stroke-width="0.4" fill="#FFFFFF" fill-rule="nonzero" transform="translate(8.9993, 8.9843) rotate(-6) translate(-8.9993, -8.9843)"></path>
                            <path d="M3.99666492,5.83515524 C4.32568194,5.5649658 4.8111822,5.61296286 5.08106011,5.94235967 C5.35093802,6.27175649 5.3029963,6.75781719 4.97397929,7.02800663 L2.76052906,8.84569646 C2.74961317,8.85466061 2.73962741,8.86470329 2.73072313,8.87567228 C2.65752732,8.96584067 2.67120203,9.09834202 2.76126645,9.17162233 L4.9712755,10.9697812 C5.30151172,11.2384757 5.35165233,11.7243139 5.08326767,12.0549314 C4.81488302,12.3855488 4.32960492,12.4357473 3.9993687,12.1670528 L1.78935965,10.3688939 C1.03882279,9.75822471 0.924866872,8.65404681 1.53483199,7.90264356 C1.60903427,7.81123533 1.69224894,7.72754633 1.78321469,7.65284507 L3.99666492,5.83515524 Z" id="路径-12" stroke="#FFFFFF" stroke-width="0.4" fill="#FFFFFF" fill-rule="nonzero"></path>
                            <path d="M15.5982274,5.83515524 C15.9272444,5.5649658 16.4127447,5.61296286 16.6826226,5.94235967 C16.9525005,6.27175649 16.9045588,6.75781719 16.5755418,7.02800663 L14.3620916,8.84569646 C14.3511757,8.85466061 14.3411899,8.86470329 14.3322856,8.87567228 C14.2590898,8.96584067 14.2727645,9.09834202 14.362829,9.17162233 L16.572838,10.9697812 C16.9030742,11.2384757 16.9532148,11.7243139 16.6848302,12.0549314 C16.4164455,12.3855488 15.9311674,12.4357473 15.6009312,12.1670528 L13.3909222,10.3688939 C12.6403853,9.75822471 12.5264294,8.65404681 13.1363945,7.90264356 C13.2105968,7.81123533 13.2938114,7.72754633 13.3847772,7.65284507 L15.5982274,5.83515524 Z" id="路径-12备份" stroke="#FFFFFF" stroke-width="0.4" fill="#FFFFFF" fill-rule="nonzero" transform="translate(14.8008, 9) scale(-1, 1) translate(-14.8008, -9)"></path>
                        </g>
                    </g>
                </g>
            </g>
        </g>
    </g>
</svg>