<svg width="16px" height="16px" viewBox="0 0 16 16" version="1.1" xmlns="http://www.w3.org/2000/svg" xmlns:xlink="http://www.w3.org/1999/xlink">
    <title>总结</title>
    <g id="设计稿" stroke="none" stroke-width="1" fill="none" fill-rule="evenodd">
        <g id="2.4.3探索型任务/知识/已关联" transform="translate(-793, -1297)">
            <g id="编组-44-+-编组-67-+-矩形-+-编组-127蒙版备份-2" transform="translate(746, 1254)">
                <g id="编组-123备份-3" transform="translate(24, 11)">
                    <g id="编组-122备份-3" transform="translate(0, 28)">
                        <g id="编组-15备份" transform="translate(17, 0)">
                            <g id="总结" transform="translate(6, 4)">
                                <rect id="大小区域" x="0" y="0" width="16" height="16"></rect>
                                <path d="M6.75,2.5 C7.22015088,2.5 7.65356005,2.65731 8.00046372,2.92216624 C8.34643995,2.65731 8.77984912,2.5 9.25,2.5 L12.921875,2.5 C14.0609623,2.5 14.984375,3.4234127 14.984375,4.5625 L14.984375,10.5625 C14.984375,11.7015873 14.0609623,12.625 12.921875,12.625 L9.94599193,12.625 C9.79051068,12.625 9.63962065,12.6777029 9.51795094,12.7745064 L8.9115179,13.2569994 C8.72348289,13.4066047 8.49028921,13.4880547 8.25,13.4880547 C8.16379074,13.4880547 8.07997952,13.4777874 7.99972245,13.458409 C7.92002048,13.4777874 7.83620926,13.4880547 7.75,13.4880547 C7.50971079,13.4880547 7.27651711,13.4066047 7.0884821,13.2569994 L6.48204906,12.7745064 C6.36037935,12.6777029 6.20948932,12.625 6.05400807,12.625 L3.078125,12.625 C1.9390377,12.625 1.015625,11.7015873 1.015625,10.5625 L1.015625,4.5625 C1.015625,3.4234127 1.9390377,2.5 3.078125,2.5 L6.75,2.5 Z M12.921875,3.875 L9.23863093,3.87509211 C9.04890191,3.87816827 8.87785586,3.95810062 8.75526901,4.08511291 C8.79336823,4.23904939 8.8125,4.39854046 8.8125,4.5625 L8.81152285,11.5900317 C9.1471696,11.368958 9.54139925,11.25 9.94599193,11.25 L12.921875,11.25 C13.3015708,11.25 13.609375,10.9421958 13.609375,10.5625 L13.609375,4.5625 C13.609375,4.18280423 13.3015708,3.875 12.921875,3.875 Z M6.76136907,3.87509211 L3.078125,3.875 C2.69842923,3.875 2.390625,4.18280423 2.390625,4.5625 L2.390625,10.5625 C2.390625,10.9421958 2.69842923,11.25 3.078125,11.25 L6.05400807,11.25 C6.45820679,11.25 6.85206266,11.3687264 7.18749651,11.5893862 L7.1875,4.5625 C7.1875,4.39854046 7.20663177,4.23904939 7.24278469,4.08613742 C7.12214414,3.95810062 6.95109809,3.87816827 6.76136907,3.87509211 Z" id="形状结合" fill="#1B62FF" fill-rule="nonzero"></path>
                            </g>
                        </g>
                    </g>
                </g>
            </g>
        </g>
    </g>
</svg>